<svg width="30" height="30" viewBox="0 0 30 30" fill="none" xmlns="http://www.w3.org/2000/svg">
<path d="M29.3407 3.08036H22.9451V0.669643C22.9451 0.267857 22.6813 0 22.2857 0C21.8901 0 21.6264 0.267857 21.6264 0.669643V3.08036H8.7033V0.669643C8.7033 0.267857 8.43956 0 8.04396 0C7.64835 0 7.38462 0.267857 7.38462 0.669643V3.08036H0.659341C0.263736 3.08036 0 3.34821 0 3.75V29.3304C0 29.7321 0.263736 30 0.659341 30H29.3407C29.7363 30 30 29.7321 30 29.3304V3.75C30 3.34821 29.6703 3.08036 29.3407 3.08036ZM7.38462 4.41964V8.77232C7.38462 9.17411 7.64835 9.44197 8.04396 9.44197C8.43956 9.44197 8.7033 9.17411 8.7033 8.77232V4.41964H21.5604V8.77232C21.5604 9.17411 21.8242 9.44197 22.2198 9.44197C22.6154 9.44197 22.8791 9.17411 22.8791 8.77232V4.41964H28.6154V12.0536H1.31868V4.41964H7.38462ZM1.31868 28.6607V13.3929H28.6813V28.6607H1.31868Z" fill="white"/>
<path d="M20.967 15.5357L14.5714 23.1697L10.5494 18.6161C10.2857 18.3482 9.8901 18.3482 9.62636 18.5491C9.36263 18.817 9.36263 19.2188 9.56043 19.4866L14.1099 24.5759C14.2417 24.7098 14.4395 24.7768 14.5714 24.7768C14.7692 24.7768 14.967 24.7098 15.033 24.5089L21.956 16.2723C22.2198 16.0045 22.1538 15.5357 21.8901 15.3348C21.6264 15.2009 21.2308 15.2009 20.967 15.5357Z" fill="white"/>
</svg>
