<svg width="187" height="80" viewBox="0 0 187 80" fill="none" xmlns="http://www.w3.org/2000/svg">
<path d="M45.6648 12.3648C45.6648 12.3648 42.02 11.7568 41.176 14.9968C40.3312 18.2376 40.9192 21.6968 43.0848 22.2608C45.2488 22.8264 47.5256 19.8072 48.2968 16.8528C49.0656 13.9 46.5352 12.592 45.6648 12.3648Z" fill="#4780BC"/>
<path d="M17.6824 53.6856C20.6564 53.6856 23.0672 51.2748 23.0672 48.3008C23.0672 45.3269 20.6564 42.916 17.6824 42.916C14.7085 42.916 12.2976 45.3269 12.2976 48.3008C12.2976 51.2748 14.7085 53.6856 17.6824 53.6856Z" fill="#4780BC"/>
<path d="M25.5632 67.4552C25.5632 67.4552 23.4552 66.52 24.7488 63.9568C26.0416 61.392 31.2336 52.2272 31.2336 52.2272L32.5536 41.3288L24.3296 44.408C24.3296 44.408 23.3592 41.768 19.8816 40.9328L31.4344 35.1616L36.6432 24.6816L28.072 27.1216L20.5552 31.84C20.5552 31.84 18.7576 32.4744 17.9944 31.2328C17.2312 29.9904 18.0072 28.6792 18.8296 28.2568C19.6496 27.8352 26.9104 23.172 26.9104 23.172L38.024 18.5568C38.024 18.5568 38.48 18.4736 38.9144 18.5384C38.9144 18.5384 39.3264 23.356 42.5216 24.3008C45.7136 25.2464 49.0296 20.784 49.0296 20.784C49.0296 20.784 49.616 20.9376 50.508 21.3072C51.036 21.528 57.3504 24.7392 57.3504 24.7392L65.1496 22.392C65.1496 22.392 67.1392 21.924 67.6008 23.6832C68.092 25.5584 66.6744 26.0944 66.4208 26.168C66.1688 26.244 57.172 28.7432 57.172 28.7432L48.4392 26.4336C48.4392 26.4336 47.9336 27.6144 49.044 28.3232L40.1752 41.1112L36.1864 53.6864L28.3896 66.8C28.3888 66.7992 27.3928 68.2168 25.5632 67.4552Z" fill="#4780BC"/>
<path d="M31.0488 33.8152C31.4792 31.7312 28.4864 30.2776 28.4864 30.2776L19.8488 39.5896L31.0488 33.8152Z" fill="#4780BC"/>
<path d="M82.81 12.314C79.147 12.314 76.617 15.042 76.353 18.529C76.254 19.662 76.254 20.839 76.353 22.005C76.628 25.503 79.147 28.209 82.821 28.209C85.285 28.209 87.595 26.922 88.519 24.7C88.618 24.425 88.64 24.238 88.64 24.018C88.64 23.325 87.991 22.819 87.386 22.819C86.781 22.819 86.484 23.149 86.253 23.578C85.648 24.909 84.339 25.756 82.81 25.756C80.522 25.756 79.081 24.128 78.894 21.785C78.828 20.795 78.828 19.783 78.894 18.793C79.081 16.472 80.522 14.756 82.81 14.756C84.339 14.756 85.648 15.603 86.253 16.945C86.473 17.33 86.781 17.704 87.386 17.704C88.024 17.704 88.64 17.165 88.64 16.494C88.64 16.274 88.618 16.087 88.519 15.823C87.595 13.601 85.285 12.314 82.81 12.314ZM102.39 12.512H92.1493C91.4233 12.512 90.8403 13.051 90.8403 13.777C90.8403 14.459 91.4233 15.042 92.1493 15.042H96.0103V26.812C96.0103 27.516 96.5933 28.11 97.2973 28.11C98.0233 28.11 98.5623 27.538 98.5623 26.812V15.042H102.39C103.083 15.042 103.688 14.459 103.688 13.777C103.688 13.051 103.116 12.512 102.39 12.512ZM112.913 28.209C116.576 28.209 119.37 25.503 119.645 22.005C119.733 20.839 119.733 19.706 119.645 18.529C119.37 15.064 116.576 12.314 112.913 12.314C109.272 12.314 106.511 15.042 106.247 18.529C106.148 19.662 106.148 20.839 106.247 22.005C106.522 25.503 109.272 28.209 112.913 28.209ZM112.913 25.756C110.647 25.756 108.997 24.073 108.799 21.741C108.722 20.751 108.722 19.75 108.799 18.76C108.997 16.439 110.647 14.745 112.913 14.745C115.212 14.745 116.906 16.439 117.082 18.76C117.17 19.75 117.17 20.751 117.082 21.741C116.906 24.073 115.234 25.756 112.913 25.756ZM83.8 32.512H78.861C77.596 32.512 76.925 33.381 76.925 34.415V46.108C76.925 47.142 77.607 48 78.861 48H83.91C86.594 48 88.673 46.625 88.673 43.556C88.673 41.708 87.738 40.41 86.286 40.003V39.97C87.364 39.486 88.244 38.463 88.244 36.582C88.244 34.426 86.682 32.512 83.8 32.512ZM83.47 34.899C84.955 34.899 85.725 35.614 85.725 36.967C85.725 38.243 85.021 39.035 83.47 39.035H79.455V34.899H83.47ZM83.778 41.092C85.23 41.092 86.132 41.928 86.132 43.347C86.132 44.81 85.351 45.624 83.657 45.624H79.455V41.092H83.778ZM105.138 46.273L100.837 34.393C100.375 33.095 99.4508 32.413 98.1858 32.413C96.9318 32.413 96.0188 33.095 95.5458 34.393L91.2118 46.273C91.1458 46.46 91.0908 46.636 91.0908 46.834C91.0908 47.538 91.6518 48.11 92.3558 48.11C92.8728 48.11 93.3678 47.791 93.5438 47.274L94.9408 43.336H101.42L102.806 47.274C102.971 47.791 103.477 48.11 103.994 48.11C104.698 48.11 105.259 47.538 105.259 46.834C105.259 46.636 105.204 46.46 105.138 46.273ZM95.7328 41.081L97.7568 35.361C97.8558 35.108 97.9768 34.998 98.1858 34.998C98.3838 34.998 98.5268 35.119 98.6148 35.35L100.628 41.081H95.7328ZM109.781 32.413C109.099 32.413 108.505 32.996 108.505 33.722V46.372C108.505 47.263 109.088 48 110.155 48H117.58C118.284 48 118.878 47.461 118.878 46.746C118.878 46.053 118.251 45.481 117.58 45.481H111.057V33.722C111.057 32.996 110.518 32.413 109.781 32.413ZM123.079 32.413C122.397 32.413 121.803 32.996 121.803 33.722V46.372C121.803 47.263 122.386 48 123.453 48H130.878C131.582 48 132.176 47.461 132.176 46.746C132.176 46.053 131.549 45.481 130.878 45.481H124.355V33.722C124.355 32.996 123.816 32.413 123.079 32.413ZM90.268 52.413C88.926 52.413 88.079 53.194 87.804 54.624L85.571 65.074C85.549 65.206 85.483 65.272 85.351 65.272C85.241 65.272 85.175 65.206 85.142 65.074L82.876 54.624C82.601 53.194 81.743 52.413 80.456 52.413C79.103 52.413 78.223 53.249 78.014 54.712L76.331 66.515C76.199 67.45 76.771 68.11 77.618 68.11C78.311 68.11 78.828 67.604 78.905 66.911L80.346 55.306C80.357 55.196 80.434 55.13 80.522 55.13C80.621 55.13 80.698 55.196 80.72 55.295L83.118 66.108C83.382 67.362 84.207 68.11 85.34 68.11C86.484 68.11 87.298 67.362 87.562 66.097L89.949 55.295C89.982 55.196 90.048 55.13 90.147 55.13C90.235 55.13 90.301 55.196 90.323 55.306L91.797 66.911C91.874 67.604 92.391 68.11 93.084 68.11C93.931 68.11 94.492 67.45 94.371 66.515L92.655 54.712C92.457 53.304 91.533 52.413 90.268 52.413ZM111.282 66.273L106.981 54.393C106.519 53.095 105.595 52.413 104.33 52.413C103.076 52.413 102.163 53.095 101.69 54.393L97.3563 66.273C97.2903 66.46 97.2353 66.636 97.2353 66.834C97.2353 67.538 97.7963 68.11 98.5003 68.11C99.0173 68.11 99.5123 67.791 99.6883 67.274L101.085 63.336H107.564L108.95 67.274C109.115 67.791 109.621 68.11 110.138 68.11C110.842 68.11 111.403 67.538 111.403 66.834C111.403 66.636 111.348 66.46 111.282 66.273ZM101.877 61.081L103.901 55.361C104 55.108 104.121 54.998 104.33 54.998C104.528 54.998 104.671 55.119 104.759 55.35L106.772 61.081H101.877ZM119.545 52.314C116.289 52.314 114.067 54.085 114.067 56.802C114.067 59.387 115.662 60.652 119.27 61.356C121.789 61.851 122.977 62.324 122.977 63.556C122.977 64.92 121.778 65.734 119.842 65.734C117.917 65.734 116.861 65.217 115.915 64.546C115.508 64.26 115.244 64.183 114.958 64.183C114.276 64.183 113.715 64.744 113.715 65.426C113.715 65.866 113.935 66.229 114.353 66.537C115.53 67.406 117.213 68.209 119.688 68.209C123.362 68.209 125.54 66.251 125.54 63.545C125.54 60.927 123.835 59.684 119.974 58.958C117.466 58.485 116.63 57.979 116.63 56.802C116.63 55.735 117.444 54.745 119.534 54.745C120.81 54.745 121.789 55.053 122.482 55.482C122.779 55.636 123.032 55.779 123.384 55.779C124.066 55.779 124.616 55.229 124.616 54.536C124.616 54.184 124.473 53.843 124.176 53.59C123.274 52.831 121.547 52.314 119.545 52.314ZM138.826 52.512H128.585C127.859 52.512 127.276 53.051 127.276 53.777C127.276 54.459 127.859 55.042 128.585 55.042H132.446V66.812C132.446 67.516 133.029 68.11 133.733 68.11C134.459 68.11 134.998 67.538 134.998 66.812V55.042H138.826C139.519 55.042 140.124 54.459 140.124 53.777C140.124 53.051 139.552 52.512 138.826 52.512ZM152.583 52.512H145.18C143.915 52.512 143.244 53.381 143.244 54.415V66.097C143.244 67.142 143.915 68 145.18 68H152.627C153.32 68 153.848 67.461 153.848 66.801C153.848 66.13 153.32 65.591 152.627 65.591H145.796V61.345H152.088C152.748 61.345 153.254 60.839 153.254 60.212C153.254 59.596 152.748 59.079 152.088 59.079H145.796V54.91H152.583C153.276 54.91 153.804 54.371 153.804 53.711C153.804 53.04 153.276 52.512 152.583 52.512ZM164.155 52.512H159.667C158.402 52.512 157.852 53.359 157.852 54.261V66.779C157.852 67.505 158.402 68.11 159.128 68.11C159.876 68.11 160.426 67.505 160.426 66.779V62.357H162.604C163.22 62.357 163.484 62.621 163.836 63.061L167.466 67.593C167.785 67.989 168.148 68.11 168.5 68.11C169.204 68.11 169.787 67.538 169.787 66.823C169.787 66.405 169.611 66.13 169.435 65.91L165.992 61.796C168.038 61.356 169.336 59.86 169.336 57.44C169.336 54.382 167.18 52.512 164.155 52.512ZM163.99 54.877C165.882 54.877 166.773 55.9 166.773 57.462C166.773 58.969 165.992 60.003 163.781 60.003H160.426V54.877H163.99ZM184.576 52.402C184.18 52.402 183.795 52.6 183.52 52.941L178.944 58.65L174.368 52.941C174.093 52.6 173.708 52.402 173.312 52.402C172.597 52.402 172.025 52.974 172.025 53.678C172.025 53.997 172.135 54.272 172.366 54.547L177.052 60.278C177.591 60.938 177.668 61.114 177.668 61.554V66.79C177.668 67.505 178.218 68.11 178.933 68.11C179.703 68.11 180.22 67.538 180.22 66.79V61.554C180.22 61.092 180.308 60.927 180.814 60.3L185.522 54.547C185.753 54.272 185.863 53.997 185.863 53.678C185.863 52.974 185.291 52.402 184.576 52.402Z" fill="#4780BC"/>
</svg>
