<?xml version="1.0" encoding="utf-8"?>
<!-- Generator: Adobe Illustrator 24.1.0, SVG Export Plug-In . SVG Version: 6.00 Build 0)  -->
<svg version="1.1" id="Layer_1" xmlns="http://www.w3.org/2000/svg" xmlns:xlink="http://www.w3.org/1999/xlink" x="0px" y="0px"
	 viewBox="0 0 187 80" style="enable-background:new 0 0 187 80;" xml:space="preserve">
<style type="text/css">
	.st0{fill:#FFFFFF;}
</style>
<path class="st0" d="M45.7,12.4c0,0-3.6-0.6-4.5,2.6c-0.8,3.2-0.3,6.7,1.9,7.3c2.2,0.6,4.4-2.5,5.2-5.4
	C49.1,13.9,46.5,12.6,45.7,12.4z"/>
<path class="st0" d="M17.7,53.7c3,0,5.4-2.4,5.4-5.4c0-3-2.4-5.4-5.4-5.4c-3,0-5.4,2.4-5.4,5.4C12.3,51.3,14.7,53.7,17.7,53.7z"/>
<path class="st0" d="M25.6,67.5c0,0-2.1-0.9-0.8-3.5c1.3-2.6,6.5-11.7,6.5-11.7l1.3-10.9l-8.2,3.1c0,0-1-2.6-4.4-3.5l11.6-5.8
	l5.2-10.5l-8.6,2.4l-7.5,4.7c0,0-1.8,0.6-2.6-0.6c-0.8-1.2,0-2.6,0.8-3c0.8-0.4,8.1-5.1,8.1-5.1L38,18.6c0,0,0.5-0.1,0.9,0
	c0,0,0.4,4.8,3.6,5.8c3.2,0.9,6.5-3.5,6.5-3.5s0.6,0.2,1.5,0.5c0.5,0.2,6.8,3.4,6.8,3.4l7.8-2.3c0,0,2-0.5,2.5,1.3
	c0.5,1.9-0.9,2.4-1.2,2.5c-0.3,0.1-9.2,2.6-9.2,2.6l-8.7-2.3c0,0-0.5,1.2,0.6,1.9l-8.9,12.8l-4,12.6l-7.8,13.1
	C28.4,66.8,27.4,68.2,25.6,67.5z"/>
<path class="st0" d="M31,33.8c0.4-2.1-2.6-3.5-2.6-3.5l-8.6,9.3L31,33.8z"/>
<path class="st0" d="M82.8,12.3c-3.7,0-6.2,2.7-6.5,6.2c-0.1,1.1-0.1,2.3,0,3.5c0.3,3.5,2.8,6.2,6.5,6.2c2.5,0,4.8-1.3,5.7-3.5
	c0.1-0.3,0.1-0.5,0.1-0.7c0-0.7-0.6-1.2-1.3-1.2c-0.6,0-0.9,0.3-1.1,0.8c-0.6,1.3-1.9,2.2-3.4,2.2c-2.3,0-3.7-1.6-3.9-4
	c-0.1-1-0.1-2,0-3c0.2-2.3,1.6-4,3.9-4c1.5,0,2.8,0.8,3.4,2.2c0.2,0.4,0.5,0.8,1.1,0.8c0.6,0,1.3-0.5,1.3-1.2c0-0.2,0-0.4-0.1-0.7
	C87.6,13.6,85.3,12.3,82.8,12.3z M102.4,12.5H92.1c-0.7,0-1.3,0.5-1.3,1.3c0,0.7,0.6,1.3,1.3,1.3H96v11.8c0,0.7,0.6,1.3,1.3,1.3
	c0.7,0,1.3-0.6,1.3-1.3V15h3.8c0.7,0,1.3-0.6,1.3-1.3C103.7,13.1,103.1,12.5,102.4,12.5z M112.9,28.2c3.7,0,6.5-2.7,6.7-6.2
	c0.1-1.2,0.1-2.3,0-3.5c-0.3-3.5-3.1-6.2-6.7-6.2c-3.6,0-6.4,2.7-6.7,6.2c-0.1,1.1-0.1,2.3,0,3.5C106.5,25.5,109.3,28.2,112.9,28.2z
	 M112.9,25.8c-2.3,0-3.9-1.7-4.1-4c-0.1-1-0.1-2,0-3c0.2-2.3,1.8-4,4.1-4c2.3,0,4,1.7,4.2,4c0.1,1,0.1,2,0,3
	C116.9,24.1,115.2,25.8,112.9,25.8z M83.8,32.5h-4.9c-1.3,0-1.9,0.9-1.9,1.9v11.7c0,1,0.7,1.9,1.9,1.9h5c2.7,0,4.8-1.4,4.8-4.4
	c0-1.8-0.9-3.1-2.4-3.6v0c1.1-0.5,2-1.5,2-3.4C88.2,34.4,86.7,32.5,83.8,32.5z M83.5,34.9c1.5,0,2.3,0.7,2.3,2.1
	c0,1.3-0.7,2.1-2.3,2.1h-4v-4.1H83.5z M83.8,41.1c1.5,0,2.4,0.8,2.4,2.3c0,1.5-0.8,2.3-2.5,2.3h-4.2v-4.5H83.8z M105.1,46.3
	l-4.3-11.9c-0.5-1.3-1.4-2-2.7-2c-1.3,0-2.2,0.7-2.6,2l-4.3,11.9c-0.1,0.2-0.1,0.4-0.1,0.6c0,0.7,0.6,1.3,1.3,1.3
	c0.5,0,1-0.3,1.2-0.8l1.4-3.9h6.5l1.4,3.9c0.2,0.5,0.7,0.8,1.2,0.8c0.7,0,1.3-0.6,1.3-1.3C105.3,46.6,105.2,46.5,105.1,46.3z
	 M95.7,41.1l2-5.7c0.1-0.3,0.2-0.4,0.4-0.4c0.2,0,0.3,0.1,0.4,0.4l2,5.7H95.7z M109.8,32.4c-0.7,0-1.3,0.6-1.3,1.3v12.7
	c0,0.9,0.6,1.6,1.7,1.6h7.4c0.7,0,1.3-0.5,1.3-1.3c0-0.7-0.6-1.3-1.3-1.3h-6.5V33.7C111.1,33,110.5,32.4,109.8,32.4z M123.1,32.4
	c-0.7,0-1.3,0.6-1.3,1.3v12.7c0,0.9,0.6,1.6,1.7,1.6h7.4c0.7,0,1.3-0.5,1.3-1.3c0-0.7-0.6-1.3-1.3-1.3h-6.5V33.7
	C124.4,33,123.8,32.4,123.1,32.4z M90.3,52.4c-1.3,0-2.2,0.8-2.5,2.2l-2.2,10.4c0,0.1-0.1,0.2-0.2,0.2c-0.1,0-0.2-0.1-0.2-0.2
	l-2.3-10.4c-0.3-1.4-1.1-2.2-2.4-2.2c-1.4,0-2.2,0.8-2.4,2.3l-1.7,11.8c-0.1,0.9,0.4,1.6,1.3,1.6c0.7,0,1.2-0.5,1.3-1.2l1.4-11.6
	c0-0.1,0.1-0.2,0.2-0.2c0.1,0,0.2,0.1,0.2,0.2l2.4,10.8c0.3,1.3,1.1,2,2.2,2c1.1,0,2-0.7,2.2-2l2.4-10.8c0-0.1,0.1-0.2,0.2-0.2
	c0.1,0,0.2,0.1,0.2,0.2l1.5,11.6c0.1,0.7,0.6,1.2,1.3,1.2c0.8,0,1.4-0.7,1.3-1.6l-1.7-11.8C92.5,53.3,91.5,52.4,90.3,52.4z
	 M111.3,66.3L107,54.4c-0.5-1.3-1.4-2-2.7-2c-1.3,0-2.2,0.7-2.6,2l-4.3,11.9c-0.1,0.2-0.1,0.4-0.1,0.6c0,0.7,0.6,1.3,1.3,1.3
	c0.5,0,1-0.3,1.2-0.8l1.4-3.9h6.5l1.4,3.9c0.2,0.5,0.7,0.8,1.2,0.8c0.7,0,1.3-0.6,1.3-1.3C111.4,66.6,111.3,66.5,111.3,66.3z
	 M101.9,61.1l2-5.7c0.1-0.3,0.2-0.4,0.4-0.4c0.2,0,0.3,0.1,0.4,0.4l2,5.7H101.9z M119.5,52.3c-3.3,0-5.5,1.8-5.5,4.5
	c0,2.6,1.6,3.9,5.2,4.6c2.5,0.5,3.7,1,3.7,2.2c0,1.4-1.2,2.2-3.1,2.2c-1.9,0-3-0.5-3.9-1.2c-0.4-0.3-0.7-0.4-1-0.4
	c-0.7,0-1.2,0.6-1.2,1.2c0,0.4,0.2,0.8,0.6,1.1c1.2,0.9,2.9,1.7,5.3,1.7c3.7,0,5.9-2,5.9-4.7c0-2.6-1.7-3.9-5.6-4.6
	c-2.5-0.5-3.3-1-3.3-2.2c0-1.1,0.8-2.1,2.9-2.1c1.3,0,2.3,0.3,2.9,0.7c0.3,0.2,0.5,0.3,0.9,0.3c0.7,0,1.2-0.5,1.2-1.2
	c0-0.4-0.1-0.7-0.4-0.9C123.3,52.8,121.5,52.3,119.5,52.3z M138.8,52.5h-10.2c-0.7,0-1.3,0.5-1.3,1.3c0,0.7,0.6,1.3,1.3,1.3h3.9
	v11.8c0,0.7,0.6,1.3,1.3,1.3c0.7,0,1.3-0.6,1.3-1.3V55h3.8c0.7,0,1.3-0.6,1.3-1.3C140.1,53.1,139.6,52.5,138.8,52.5z M152.6,52.5
	h-7.4c-1.3,0-1.9,0.9-1.9,1.9v11.7c0,1,0.7,1.9,1.9,1.9h7.4c0.7,0,1.2-0.5,1.2-1.2c0-0.7-0.5-1.2-1.2-1.2h-6.8v-4.2h6.3
	c0.7,0,1.2-0.5,1.2-1.1c0-0.6-0.5-1.1-1.2-1.1h-6.3v-4.2h6.8c0.7,0,1.2-0.5,1.2-1.2C153.8,53,153.3,52.5,152.6,52.5z M164.2,52.5
	h-4.5c-1.3,0-1.8,0.8-1.8,1.7v12.5c0,0.7,0.5,1.3,1.3,1.3c0.7,0,1.3-0.6,1.3-1.3v-4.4h2.2c0.6,0,0.9,0.3,1.2,0.7l3.6,4.5
	c0.3,0.4,0.7,0.5,1,0.5c0.7,0,1.3-0.6,1.3-1.3c0-0.4-0.2-0.7-0.4-0.9l-3.4-4.1c2-0.4,3.3-1.9,3.3-4.4
	C169.3,54.4,167.2,52.5,164.2,52.5z M164,54.9c1.9,0,2.8,1,2.8,2.6c0,1.5-0.8,2.5-3,2.5h-3.4v-5.1H164z M184.6,52.4
	c-0.4,0-0.8,0.2-1.1,0.5l-4.6,5.7l-4.6-5.7c-0.3-0.3-0.7-0.5-1.1-0.5c-0.7,0-1.3,0.6-1.3,1.3c0,0.3,0.1,0.6,0.3,0.9l4.7,5.7
	c0.5,0.7,0.6,0.8,0.6,1.3v5.2c0,0.7,0.6,1.3,1.3,1.3c0.8,0,1.3-0.6,1.3-1.3v-5.2c0-0.5,0.1-0.6,0.6-1.3l4.7-5.8
	c0.2-0.3,0.3-0.5,0.3-0.9C185.9,53,185.3,52.4,184.6,52.4z"/>
</svg>
